General
Complete name                    : F:\\torrents\\Sophie Zelmani - Soul\\01 Free Now.mp3
Format                           : MPEG Audio
File size                        : 4.97 MiB
Duration                         : 3mn 37s
Overall bit rate mode            : Constant
Overall bit rate                 : 192 Kbps
Album                            : Soul
Track name                       : Free Now
Track name/Position              : 1
Performer                        : Sophie Zelmani
Genre                            : Rock
Recorded date                    : 2011
Writing library                  : LAME3.98r
Comment                          : www.dvdvideosoft.com

Audio
Format                           : MPEG Audio
Format version                   : Version 1
Format profile                   : Layer 3
Duration                         : 3mn 37s
Bit rate mode                    : Constant
Bit rate                         : 192 Kbps
Channel(s)                       : 2 channels
Sampling rate                    : 44.1 KHz
Compression mode                 : Lossy
Stream size                      : 4.97 MiB (100%)
Writing library                  : LAME3.98r
Encoding settings                : -m s -V 4 -q 3 -lowpass 18.6 -b 192

General
Complete name                    : F:\\torrents\\Sophie Zelmani - Soul\\02 I Wouldn\'t Speak for Him.mp3
Format                           : MPEG Audio
File size                        : 4.55 MiB
Duration                         : 3mn 18s
Overall bit rate mode            : Constant
Overall bit rate                 : 192 Kbps
Album                            : Soul
Track name                       : I Wouldn\'t Speak for Him
Track name/Position              : 2
Performer                        : Sophie Zelmani
Genre                            : Rock
Recorded date                    : 2011
Writing library                  : LAME3.98r
Comment                          : www.dvdvideosoft.com

Audio
Format                           : MPEG Audio
Format version                   : Version 1
Format profile                   : Layer 3
Duration                         : 3mn 18s
Bit rate mode                    : Constant
Bit rate                         : 192 Kbps
Channel(s)                       : 2 channels
Sampling rate                    : 44.1 KHz
Compression mode                 : Lossy
Stream size                      : 4.55 MiB (100%)
Writing library                  : LAME3.98r
Encoding settings                : -m s -V 4 -q 3 -lowpass 18.6 -b 192

General
Complete name                    : F:\\torrents\\Sophie Zelmani - Soul\\03 All About You(1).mp3
Format                           : MPEG Audio
File size                        : 10.2 MiB
Duration                         : 7mn 26s
Overall bit rate mode            : Constant
Overall bit rate                 : 192 Kbps
Album                            : Soul
Track name                       : All About You
Track name/Position              : 3
Performer                        : Sophie Zelmani
Genre                            : Rock
Recorded date                    : 2011
Writing library                  : LAME3.98r
Comment                          : www.dvdvideosoft.com

Audio
Format                           : MPEG Audio
Format version                   : Version 1
Format profile                   : Layer 3
Duration                         : 7mn 27s
Bit rate mode                    : Constant
Bit rate                         : 192 Kbps
Channel(s)                       : 2 channels
Sampling rate                    : 44.1 KHz
Compression mode                 : Lossy
Stream size                      : 10.2 MiB (100%)
Writing library                  : LAME3.98r
Encoding settings                : -m s -V 4 -q 3 -lowpass 18.6 -b 192

General
Complete name                    : F:\\torrents\\Sophie Zelmani - Soul\\04 For You(1).mp3
Format                           : MPEG Audio
File size                        : 4.67 MiB
Duration                         : 3mn 24s
Overall bit rate mode            : Constant
Overall bit rate                 : 192 Kbps
Album                            : Soul
Track name                       : For You
Track name/Position              : 4
Performer                        : Sophie Zelmani
Genre                            : Rock
Recorded date                    : 2011
Writing library                  : LAME3.98r
Comment                          : (feat. Daniel Lemma)

Audio
Format                           : MPEG Audio
Format version                   : Version 1
Format profile                   : Layer 3
Duration                         : 3mn 24s
Bit rate mode                    : Constant
Bit rate                         : 192 Kbps
Channel(s)                       : 2 channels
Sampling rate                    : 44.1 KHz
Compression mode                 : Lossy
Stream size                      : 4.67 MiB (100%)
Writing library                  : LAME3.98r
Encoding settings                : -m s -V 4 -q 3 -lowpass 18.6 -b 192

General
Complete name                    : F:\\torrents\\Sophie Zelmani - Soul\\05 My Daughter.mp3
Format                           : MPEG Audio
File size                        : 4.42 MiB
Duration                         : 3mn 12s
Overall bit rate mode            : Constant
Overall bit rate                 : 192 Kbps
Album                            : Soul
Track name                       : My Daughter
Track name/Position              : 5
Performer                        : Sophie Zelmani
Genre                            : Rock
Recorded date                    : 2011
Writing library                  : LAME3.98r
Comment                          : www.dvdvideosoft.com

Audio
Format                           : MPEG Audio
Format version                   : Version 1
Format profile                   : Layer 3
Duration                         : 3mn 13s
Bit rate mode                    : Constant
Bit rate                         : 192 Kbps
Channel(s)                       : 2 channels
Sampling rate                    : 44.1 KHz
Compression mode                 : Lossy
Stream size                      : 4.41 MiB (100%)
Writing library                  : LAME3.98r
Encoding settings                : -m s -V 4 -q 3 -lowpass 18.6 -b 192

General
Complete name                    : F:\\torrents\\Sophie Zelmani - Soul\\06 I Love You.mp3
Format                           : MPEG Audio
File size                        : 6.40 MiB
Duration                         : 4mn 39s
Overall bit rate mode            : Constant
Overall bit rate                 : 192 Kbps
Album                            : Soul
Track name                       : I Love You
Track name/Position              : 6
Performer                        : Sophie Zelmani
Genre                            : Rock
Recorded date                    : 2011
Writing library                  : LAME3.98r
Comment                          : www.dvdvideosoft.com

Audio
Format                           : MPEG Audio
Format version                   : Version 1
Format profile                   : Layer 3
Duration                         : 4mn 40s
Bit rate mode                    : Constant
Bit rate                         : 192 Kbps
Channel(s)                       : 2 channels
Sampling rate                    : 44.1 KHz
Compression mode                 : Lossy
Stream size                      : 6.40 MiB (100%)
Writing library                  : LAME3.98r
Encoding settings                : -m s -V 4 -q 3 -lowpass 18.6 -b 192

General
Complete name                    : F:\\torrents\\Sophie Zelmani - Soul\\07 If You\'re Still a Dreamer.mp3
Format                           : MPEG Audio
File size                        : 3.42 MiB
Duration                         : 2mn 29s
Overall bit rate mode            : Constant
Overall bit rate                 : 192 Kbps
Album                            : Soul
Track name                       : If You\'re Still a Dreamer
Track name/Position              : 7
Performer                        : Sophie Zelmani
Genre                            : Rock
Recorded date                    : 2011
Writing library                  : LAME3.98r
Comment                          : www.dvdvideosoft.com

Audio
Format                           : MPEG Audio
Format version                   : Version 1
Format profile                   : Layer 3
Duration                         : 2mn 29s
Bit rate mode                    : Constant
Bit rate                         : 192 Kbps
Channel(s)                       : 2 channels
Sampling rate                    : 44.1 KHz
Compression mode                 : Lossy
Stream size                      : 3.42 MiB (100%)
Writing library                  : LAME3.98r
Encoding settings                : -m s -V 4 -q 3 -lowpass 18.6 -b 192

General
Complete name                    : F:\\torrents\\Sophie Zelmani - Soul\\08 Story of Us.mp3
Format                           : MPEG Audio
File size                        : 3.93 MiB
Duration                         : 2mn 51s
Overall bit rate mode            : Constant
Overall bit rate                 : 192 Kbps
Album                            : Soul
Track name                       : Story of Us
Track name/Position              : 8
Performer                        : Sophie Zelmani
Genre                            : Rock
Recorded date                    : 2011
Writing library                  : LAME3.98r
Comment                          : www.dvdvideosoft.com

Audio
Format                           : MPEG Audio
Format version                   : Version 1
Format profile                   : Layer 3
Duration                         : 2mn 51s
Bit rate mode                    : Constant
Bit rate                         : 192 Kbps
Channel(s)                       : 2 channels
Sampling rate                    : 44.1 KHz
Compression mode                 : Lossy
Stream size                      : 3.93 MiB (100%)
Writing library                  : LAME3.98r
Encoding settings                : -m s -V 4 -q 3 -lowpass 18.6 -b 192

General
Complete name                    : F:\\torrents\\Sophie Zelmani - Soul\\09 Churchbell.mp3
Format                           : MPEG Audio
File size                        : 6.48 MiB
Duration                         : 4mn 42s
Overall bit rate mode            : Constant
Overall bit rate                 : 192 Kbps
Album                            : Soul
Track name                       : Churchbell
Track name/Position              : 9
Performer                        : Sophie Zelmani
Genre                            : Rock
Recorded date                    : 2011
Writing library                  : LAME3.98r
Comment                          : www.dvdvideosoft.com

Audio
Format                           : MPEG Audio
Format version                   : Version 1
Format profile                   : Layer 3
Duration                         : 4mn 43s
Bit rate mode                    : Constant
Bit rate                         : 192 Kbps
Channel(s)                       : 2 channels
Sampling rate                    : 44.1 KHz
Compression mode                 : Lossy
Stream size                      : 6.48 MiB (100%)
Writing library                  : LAME3.98r
Encoding settings                : -m s -V 4 -q 3 -lowpass 18.6 -b 192

General
Complete name                    : F:\\torrents\\Sophie Zelmani - Soul\\10 My Soul Remembers.mp3
Format                           : MPEG Audio
File size                        : 12.5 MiB
Duration                         : 9mn 4s
Overall bit rate mode            : Constant
Overall bit rate                 : 192 Kbps
Album                            : Soul
Track name                       : My Soul Remembers
Track name/Position              : 10
Performer                        : Sophie Zelmani
Genre                            : Rock
Recorded date                    : 2011
Writing library                  : LAME3.98r
Comment                          : www.dvdvideosoft.com

Audio
Format                           : MPEG Audio
Format version                   : Version 1
Format profile                   : Layer 3
Duration                         : 9mn 5s
Bit rate mode                    : Constant
Bit rate                         : 192 Kbps
Channel(s)                       : 2 channels
Sampling rate                    : 44.1 KHz
Compression mode                 : Lossy
Stream size                      : 12.5 MiB (100%)
Writing library                  : LAME3.98r
Encoding settings                : -m s -V 4 -q 3 -lowpass 18.6 -b 192

General
Complete name                    : F:\\torrents\\Sophie Zelmani - Soul\\11 Home.mp3
Format                           : MPEG Audio
File size                        : 5.88 MiB
Duration                         : 4mn 16s
Overall bit rate mode            : Constant
Overall bit rate                 : 192 Kbps
Album                            : Soul
Track name                       : Home
Track name/Position              : 11
Performer                        : Sophie Zelmani
Genre                            : Rock
Recorded date                    : 2011
Writing library                  : LAME3.98r
Comment                          : www.dvdvideosoft.com

Audio
Format                           : MPEG Audio
Format version                   : Version 1
Format profile                   : Layer 3
Duration                         : 4mn 17s
Bit rate mode                    : Constant
Bit rate                         : 192 Kbps
Channel(s)                       : 2 channels
Sampling rate                    : 44.1 KHz
Compression mode                 : Lossy
Stream size                      : 5.87 MiB (100%)
Writing library                  : LAME3.98r
Encoding settings                : -m s -V 4 -q 3 -lowpass 18.6 -b 192

General
Complete name                    : F:\\torrents\\Sophie Zelmani - Soul\\folder.jpg
Format                           : JPEG
File size                        : 59.9 KiB

Image
Format                           : JPEG
Width                            : 600 pixels
Height                           : 600 pixels
Chroma subsampling               : 4:4:4
Bit depth                        : 8 bits
Compression mode                 : Lossy
